# xmcd
#
# Track frame offsets:
#	150
#	12175
#	22057
#	35695
#	48537
#	62257
#	73567
#	87837
#	100130
#	114230
#
# Disc length: 1688
#
# Revision: 4
# Processed by: cddbd v1.5.2PL0 Copyright (c) Steve Scherf et al.
# Submitted via: Broken Cross Disk Manager 3.94.2201
#
DISCID=7806960a
DTITLE=Buck Owens - Act Naturally
DYEAR=1989
DGENRE=Country
TTITLE0=Tijuana Lady
TTITLE1=Gonna Have Love
TTITLE2=Out There Chasing Rainbows
TTITLE3=I Was There
TTITLE4=Act Naturally (Duet With Ringo Starr)
TTITLE5=Playboy
TTITLE6=Rock Hard Love
TTITLE7=Crying Time (Duet Wtih Emmylou Harris)
TTITLE8=Brooklyn Bridge
TTITLE9=Take Me Back Again
EXTD=
EXTT0=
EXTT1=
EXTT2=
EXTT3=
EXTT4=
EXTT5=
EXTT6=
EXTT7=
EXTT8=
EXTT9=
PLAYORDER=
